G04 #@! TF.GenerationSoftware,KiCad,Pcbnew,(5.1.5-0)*
G04 #@! TF.CreationDate,2020-09-15T10:34:15-07:00*
G04 #@! TF.ProjectId,cereal,63657265-616c-42e6-9b69-6361645f7063,rev?*
G04 #@! TF.SameCoordinates,Original*
G04 #@! TF.FileFunction,Copper,L2,Bot*
G04 #@! TF.FilePolarity,Positive*
%FSLAX46Y46*%
G04 Gerber Fmt 4.6, Leading zero omitted, Abs format (unit mm)*
G04 Created by KiCad (PCBNEW (5.1.5-0)) date 2020-09-15 10:34:15*
%MOMM*%
%LPD*%
G04 APERTURE LIST*
%ADD10O,1.350000X1.350000*%
%ADD11R,1.350000X1.350000*%
%ADD12R,1.850000X1.180000*%
%ADD13R,1.250000X0.300000*%
%ADD14R,1.850000X0.300000*%
%ADD15C,0.500000*%
%ADD16C,0.200000*%
%ADD17C,0.254000*%
G04 APERTURE END LIST*
D10*
X74136500Y-53111900D03*
X76136500Y-53111900D03*
X74136500Y-55111900D03*
X76136500Y-55111900D03*
X74136500Y-57111900D03*
D11*
X76136500Y-57111900D03*
D12*
X51835300Y-51535200D03*
X51841400Y-58864500D03*
D13*
X51836900Y-55944200D03*
X51836900Y-53444200D03*
X51836900Y-55444200D03*
X51836900Y-52944200D03*
X51836900Y-56444200D03*
X51836900Y-53944200D03*
X51836900Y-56944200D03*
X51836900Y-57444200D03*
D14*
X51836900Y-57930300D03*
X51836900Y-52458100D03*
D13*
X51836900Y-54944200D03*
X51836900Y-54444200D03*
D15*
X70288193Y-56852488D03*
X69803148Y-54369452D03*
X60985500Y-54229016D03*
X62865010Y-56362490D03*
X53263800Y-52451000D03*
X53263806Y-57912000D03*
X62992000Y-54000500D03*
X67462400Y-52171598D03*
X64414400Y-57238902D03*
X57211000Y-52263000D03*
X65404990Y-51710490D03*
X57234000Y-54163000D03*
X66353204Y-52131476D03*
X56896000Y-57937500D03*
X55033999Y-54163001D03*
X53263800Y-56494218D03*
X53247190Y-53949600D03*
X66573500Y-58420000D03*
X59880500Y-55626000D03*
X72771000Y-58927998D03*
D16*
X69803148Y-56367443D02*
X69803148Y-54723005D01*
X70288193Y-56852488D02*
X69803148Y-56367443D01*
X69803148Y-54723005D02*
X69803148Y-54369452D01*
X62865010Y-56108610D02*
X62865010Y-56362490D01*
X60985500Y-54229100D02*
X62865010Y-56108610D01*
X60985500Y-54229016D02*
X60985500Y-54229100D01*
X52961900Y-57930300D02*
X52969000Y-57937400D01*
X51836900Y-57930300D02*
X52961900Y-57930300D01*
X52969000Y-57937400D02*
X53390800Y-57937400D01*
X53256700Y-52458100D02*
X53263800Y-52451000D01*
X51836900Y-52458100D02*
X53256700Y-52458100D01*
X57763510Y-51710490D02*
X65051437Y-51710490D01*
X65051437Y-51710490D02*
X65404990Y-51710490D01*
X57211000Y-52263000D02*
X57763510Y-51710490D01*
X66224180Y-52260500D02*
X66353204Y-52131476D01*
X58166000Y-52260500D02*
X66224180Y-52260500D01*
X57234000Y-53192500D02*
X58166000Y-52260500D01*
X57234000Y-54163000D02*
X57234000Y-53192500D01*
X55283998Y-54413000D02*
X55033999Y-54163001D01*
X55283998Y-56376198D02*
X55283998Y-54413000D01*
X56845300Y-57937500D02*
X55283998Y-56376198D01*
X56896000Y-57937500D02*
X56845300Y-57937500D01*
X53213782Y-56444200D02*
X53263800Y-56494218D01*
X51836900Y-56444200D02*
X53213782Y-56444200D01*
X53263800Y-56494218D02*
X53263800Y-53966210D01*
X53241790Y-53944200D02*
X53247190Y-53949600D01*
X53263800Y-53966210D02*
X53247190Y-53949600D01*
X51836900Y-53944200D02*
X53241790Y-53944200D01*
X66573500Y-58420000D02*
X72263002Y-58420000D01*
X72263002Y-58420000D02*
X72771000Y-58927998D01*
X59880500Y-56261000D02*
X62039500Y-58420000D01*
X62039500Y-58420000D02*
X66573500Y-58420000D01*
X59880500Y-55626000D02*
X59880500Y-56261000D01*
D17*
G36*
X75981572Y-51807053D02*
G01*
X75754387Y-51852242D01*
X75515982Y-51950993D01*
X75301423Y-52094356D01*
X75136500Y-52259279D01*
X74971577Y-52094356D01*
X74757018Y-51950993D01*
X74518613Y-51852242D01*
X74265524Y-51801900D01*
X74007476Y-51801900D01*
X73754387Y-51852242D01*
X73515982Y-51950993D01*
X73301423Y-52094356D01*
X73118956Y-52276823D01*
X72975593Y-52491382D01*
X72876842Y-52729787D01*
X72826500Y-52982876D01*
X72826500Y-53240924D01*
X72876842Y-53494013D01*
X72975593Y-53732418D01*
X73118956Y-53946977D01*
X73283879Y-54111900D01*
X73118956Y-54276823D01*
X72975593Y-54491382D01*
X72876842Y-54729787D01*
X72826500Y-54982876D01*
X72826500Y-55240924D01*
X72876842Y-55494013D01*
X72975593Y-55732418D01*
X73118956Y-55946977D01*
X73283879Y-56111900D01*
X73118956Y-56276823D01*
X72975593Y-56491382D01*
X72876842Y-56729787D01*
X72826500Y-56982876D01*
X72826500Y-57240924D01*
X72876842Y-57494013D01*
X72975593Y-57732418D01*
X73118956Y-57946977D01*
X73301423Y-58129444D01*
X73515982Y-58272807D01*
X73754387Y-58371558D01*
X74007476Y-58421900D01*
X74265524Y-58421900D01*
X74518613Y-58371558D01*
X74757018Y-58272807D01*
X74971577Y-58129444D01*
X75020751Y-58080270D01*
X75021195Y-58081102D01*
X75087052Y-58161348D01*
X75167298Y-58227205D01*
X75258850Y-58276140D01*
X75358190Y-58306275D01*
X75461500Y-58316450D01*
X75931750Y-58313900D01*
X76063500Y-58182150D01*
X76063500Y-57184900D01*
X76043500Y-57184900D01*
X76043500Y-57038900D01*
X76063500Y-57038900D01*
X76063500Y-57018900D01*
X76209500Y-57018900D01*
X76209500Y-57038900D01*
X76229500Y-57038900D01*
X76229500Y-57184900D01*
X76209500Y-57184900D01*
X76209500Y-58182150D01*
X76295135Y-58267785D01*
X75621681Y-58941239D01*
X73656000Y-58942233D01*
X73656000Y-58840833D01*
X73621990Y-58669853D01*
X73555277Y-58508793D01*
X73458424Y-58363843D01*
X73335155Y-58240574D01*
X73190205Y-58143721D01*
X73029145Y-58077008D01*
X72942152Y-58059704D01*
X72808260Y-57925812D01*
X72785240Y-57897762D01*
X72673322Y-57805913D01*
X72545635Y-57737663D01*
X72407087Y-57695635D01*
X72299107Y-57685000D01*
X72263002Y-57681444D01*
X72226897Y-57685000D01*
X70590948Y-57685000D01*
X70707398Y-57636765D01*
X70852348Y-57539912D01*
X70975617Y-57416643D01*
X71072470Y-57271693D01*
X71139183Y-57110633D01*
X71173193Y-56939653D01*
X71173193Y-56765323D01*
X71139183Y-56594343D01*
X71072470Y-56433283D01*
X70975617Y-56288333D01*
X70852348Y-56165064D01*
X70707398Y-56068211D01*
X70546338Y-56001498D01*
X70538148Y-55999869D01*
X70538148Y-54862405D01*
X70587425Y-54788657D01*
X70654138Y-54627597D01*
X70688148Y-54456617D01*
X70688148Y-54282287D01*
X70654138Y-54111307D01*
X70587425Y-53950247D01*
X70490572Y-53805297D01*
X70367303Y-53682028D01*
X70222353Y-53585175D01*
X70061293Y-53518462D01*
X69890313Y-53484452D01*
X69715983Y-53484452D01*
X69545003Y-53518462D01*
X69383943Y-53585175D01*
X69238993Y-53682028D01*
X69115724Y-53805297D01*
X69018871Y-53950247D01*
X68952158Y-54111307D01*
X68918148Y-54282287D01*
X68918148Y-54456617D01*
X68952158Y-54627597D01*
X69018871Y-54788657D01*
X69068149Y-54862406D01*
X69068148Y-56331338D01*
X69064592Y-56367443D01*
X69078783Y-56511528D01*
X69081439Y-56520282D01*
X69120811Y-56650075D01*
X69189061Y-56777762D01*
X69280910Y-56889680D01*
X69308956Y-56912697D01*
X69419899Y-57023640D01*
X69437203Y-57110633D01*
X69503916Y-57271693D01*
X69600769Y-57416643D01*
X69724038Y-57539912D01*
X69868988Y-57636765D01*
X69985438Y-57685000D01*
X67066453Y-57685000D01*
X66992705Y-57635723D01*
X66831645Y-57569010D01*
X66660665Y-57535000D01*
X66486335Y-57535000D01*
X66315355Y-57569010D01*
X66154295Y-57635723D01*
X66080547Y-57685000D01*
X62343947Y-57685000D01*
X60676309Y-56017363D01*
X60731490Y-55884145D01*
X60765500Y-55713165D01*
X60765500Y-55538835D01*
X60731490Y-55367855D01*
X60664777Y-55206795D01*
X60567924Y-55061845D01*
X60444655Y-54938576D01*
X60299705Y-54841723D01*
X60138645Y-54775010D01*
X59967665Y-54741000D01*
X59793335Y-54741000D01*
X59622355Y-54775010D01*
X59461295Y-54841723D01*
X59316345Y-54938576D01*
X59193076Y-55061845D01*
X59096223Y-55206795D01*
X59029510Y-55367855D01*
X58995500Y-55538835D01*
X58995500Y-55713165D01*
X59029510Y-55884145D01*
X59096223Y-56045205D01*
X59145500Y-56118953D01*
X59145500Y-56224895D01*
X59141944Y-56261000D01*
X59145500Y-56297105D01*
X59156135Y-56405085D01*
X59198163Y-56543633D01*
X59266414Y-56671320D01*
X59358263Y-56783238D01*
X59386308Y-56806254D01*
X61494246Y-58914193D01*
X61517262Y-58942238D01*
X61524737Y-58948373D01*
X53404472Y-58952482D01*
X53404472Y-58274500D01*
X53392212Y-58150018D01*
X53355902Y-58030320D01*
X53296937Y-57920006D01*
X53288900Y-57910213D01*
X53288900Y-57857298D01*
X53245474Y-57857298D01*
X53228200Y-57836250D01*
X53288900Y-57775550D01*
X53281067Y-57675952D01*
X53250734Y-57576673D01*
X53201616Y-57485219D01*
X53135599Y-57405104D01*
X53099972Y-57375984D01*
X53099972Y-57363969D01*
X53176635Y-57379218D01*
X53350965Y-57379218D01*
X53521945Y-57345208D01*
X53683005Y-57278495D01*
X53827955Y-57181642D01*
X53951224Y-57058373D01*
X54048077Y-56913423D01*
X54114790Y-56752363D01*
X54148800Y-56581383D01*
X54148800Y-56407053D01*
X54114790Y-56236073D01*
X54048077Y-56075013D01*
X53998800Y-56001265D01*
X53998800Y-54417694D01*
X54031467Y-54368805D01*
X54098180Y-54207745D01*
X54124418Y-54075836D01*
X54148999Y-54075836D01*
X54148999Y-54250166D01*
X54183009Y-54421146D01*
X54249722Y-54582206D01*
X54346575Y-54727156D01*
X54469844Y-54850425D01*
X54548999Y-54903315D01*
X54548998Y-56340093D01*
X54545442Y-56376198D01*
X54559633Y-56520283D01*
X54562679Y-56530323D01*
X54601661Y-56658830D01*
X54669911Y-56786517D01*
X54761760Y-56898435D01*
X54789806Y-56921452D01*
X56040295Y-58171942D01*
X56045010Y-58195645D01*
X56111723Y-58356705D01*
X56208576Y-58501655D01*
X56331845Y-58624924D01*
X56476795Y-58721777D01*
X56637855Y-58788490D01*
X56808835Y-58822500D01*
X56983165Y-58822500D01*
X57154145Y-58788490D01*
X57315205Y-58721777D01*
X57460155Y-58624924D01*
X57583424Y-58501655D01*
X57680277Y-58356705D01*
X57746990Y-58195645D01*
X57781000Y-58024665D01*
X57781000Y-57850335D01*
X57746990Y-57679355D01*
X57680277Y-57518295D01*
X57583424Y-57373345D01*
X57460155Y-57250076D01*
X57315205Y-57153223D01*
X57154145Y-57086510D01*
X57003864Y-57056617D01*
X56018998Y-56071752D01*
X56018998Y-54449105D01*
X56022554Y-54413000D01*
X56008363Y-54268914D01*
X55996285Y-54229100D01*
X55966335Y-54130367D01*
X55908218Y-54021638D01*
X55884989Y-53904856D01*
X55818276Y-53743796D01*
X55721423Y-53598846D01*
X55598154Y-53475577D01*
X55453204Y-53378724D01*
X55292144Y-53312011D01*
X55121164Y-53278001D01*
X54946834Y-53278001D01*
X54775854Y-53312011D01*
X54614794Y-53378724D01*
X54469844Y-53475577D01*
X54346575Y-53598846D01*
X54249722Y-53743796D01*
X54183009Y-53904856D01*
X54148999Y-54075836D01*
X54124418Y-54075836D01*
X54132190Y-54036765D01*
X54132190Y-53862435D01*
X54098180Y-53691455D01*
X54031467Y-53530395D01*
X53934614Y-53385445D01*
X53811345Y-53262176D01*
X53666395Y-53165323D01*
X53505335Y-53098610D01*
X53334355Y-53064600D01*
X53160025Y-53064600D01*
X53099972Y-53076545D01*
X53099972Y-53012416D01*
X53135599Y-52983296D01*
X53201616Y-52903181D01*
X53250734Y-52811727D01*
X53281067Y-52712448D01*
X53288900Y-52612850D01*
X53229943Y-52553893D01*
X53248647Y-52531102D01*
X53288900Y-52531102D01*
X53288900Y-52482054D01*
X53290837Y-52479694D01*
X53349802Y-52369380D01*
X53386112Y-52249682D01*
X53398372Y-52125200D01*
X53398372Y-51458685D01*
X56844382Y-51456941D01*
X56791795Y-51478723D01*
X56646845Y-51575576D01*
X56523576Y-51698845D01*
X56426723Y-51843795D01*
X56360010Y-52004855D01*
X56326000Y-52175835D01*
X56326000Y-52350165D01*
X56360010Y-52521145D01*
X56426723Y-52682205D01*
X56523576Y-52827155D01*
X56570691Y-52874270D01*
X56551664Y-52909867D01*
X56509635Y-53048415D01*
X56495444Y-53192500D01*
X56499001Y-53228614D01*
X56499001Y-53670046D01*
X56449723Y-53743795D01*
X56383010Y-53904855D01*
X56349000Y-54075835D01*
X56349000Y-54250165D01*
X56383010Y-54421145D01*
X56449723Y-54582205D01*
X56546576Y-54727155D01*
X56669845Y-54850424D01*
X56814795Y-54947277D01*
X56975855Y-55013990D01*
X57146835Y-55048000D01*
X57321165Y-55048000D01*
X57492145Y-55013990D01*
X57653205Y-54947277D01*
X57798155Y-54850424D01*
X57921424Y-54727155D01*
X58018277Y-54582205D01*
X58084990Y-54421145D01*
X58119000Y-54250165D01*
X58119000Y-54141851D01*
X60100500Y-54141851D01*
X60100500Y-54316181D01*
X60134510Y-54487161D01*
X60201223Y-54648221D01*
X60298076Y-54793171D01*
X60421345Y-54916440D01*
X60566295Y-55013293D01*
X60727355Y-55080006D01*
X60814243Y-55097289D01*
X61982045Y-56265092D01*
X61980010Y-56275325D01*
X61980010Y-56449655D01*
X62014020Y-56620635D01*
X62080733Y-56781695D01*
X62177586Y-56926645D01*
X62300855Y-57049914D01*
X62445805Y-57146767D01*
X62606865Y-57213480D01*
X62777845Y-57247490D01*
X62952175Y-57247490D01*
X63123155Y-57213480D01*
X63284215Y-57146767D01*
X63429165Y-57049914D01*
X63552434Y-56926645D01*
X63649287Y-56781695D01*
X63716000Y-56620635D01*
X63750010Y-56449655D01*
X63750010Y-56275325D01*
X63716000Y-56104345D01*
X63649287Y-55943285D01*
X63552434Y-55798335D01*
X63509766Y-55755667D01*
X63479097Y-55698290D01*
X63410263Y-55614416D01*
X63410260Y-55614413D01*
X63387247Y-55586372D01*
X63359207Y-55563360D01*
X61853815Y-54057969D01*
X61836490Y-53970871D01*
X61769777Y-53809811D01*
X61672924Y-53664861D01*
X61549655Y-53541592D01*
X61404705Y-53444739D01*
X61243645Y-53378026D01*
X61072665Y-53344016D01*
X60898335Y-53344016D01*
X60727355Y-53378026D01*
X60566295Y-53444739D01*
X60421345Y-53541592D01*
X60298076Y-53664861D01*
X60201223Y-53809811D01*
X60134510Y-53970871D01*
X60100500Y-54141851D01*
X58119000Y-54141851D01*
X58119000Y-54075835D01*
X58084990Y-53904855D01*
X58018277Y-53743795D01*
X57969000Y-53670047D01*
X57969000Y-53496946D01*
X58470447Y-52995500D01*
X66160585Y-52995500D01*
X66266039Y-53016476D01*
X66440369Y-53016476D01*
X66611349Y-52982466D01*
X66772409Y-52915753D01*
X66917359Y-52818900D01*
X67040628Y-52695631D01*
X67137481Y-52550681D01*
X67204194Y-52389621D01*
X67238204Y-52218641D01*
X67238204Y-52044311D01*
X67204194Y-51873331D01*
X67137481Y-51712271D01*
X67040628Y-51567321D01*
X66925146Y-51451839D01*
X75621958Y-51447438D01*
X75981572Y-51807053D01*
G37*
X75981572Y-51807053D02*
X75754387Y-51852242D01*
X75515982Y-51950993D01*
X75301423Y-52094356D01*
X75136500Y-52259279D01*
X74971577Y-52094356D01*
X74757018Y-51950993D01*
X74518613Y-51852242D01*
X74265524Y-51801900D01*
X74007476Y-51801900D01*
X73754387Y-51852242D01*
X73515982Y-51950993D01*
X73301423Y-52094356D01*
X73118956Y-52276823D01*
X72975593Y-52491382D01*
X72876842Y-52729787D01*
X72826500Y-52982876D01*
X72826500Y-53240924D01*
X72876842Y-53494013D01*
X72975593Y-53732418D01*
X73118956Y-53946977D01*
X73283879Y-54111900D01*
X73118956Y-54276823D01*
X72975593Y-54491382D01*
X72876842Y-54729787D01*
X72826500Y-54982876D01*
X72826500Y-55240924D01*
X72876842Y-55494013D01*
X72975593Y-55732418D01*
X73118956Y-55946977D01*
X73283879Y-56111900D01*
X73118956Y-56276823D01*
X72975593Y-56491382D01*
X72876842Y-56729787D01*
X72826500Y-56982876D01*
X72826500Y-57240924D01*
X72876842Y-57494013D01*
X72975593Y-57732418D01*
X73118956Y-57946977D01*
X73301423Y-58129444D01*
X73515982Y-58272807D01*
X73754387Y-58371558D01*
X74007476Y-58421900D01*
X74265524Y-58421900D01*
X74518613Y-58371558D01*
X74757018Y-58272807D01*
X74971577Y-58129444D01*
X75020751Y-58080270D01*
X75021195Y-58081102D01*
X75087052Y-58161348D01*
X75167298Y-58227205D01*
X75258850Y-58276140D01*
X75358190Y-58306275D01*
X75461500Y-58316450D01*
X75931750Y-58313900D01*
X76063500Y-58182150D01*
X76063500Y-57184900D01*
X76043500Y-57184900D01*
X76043500Y-57038900D01*
X76063500Y-57038900D01*
X76063500Y-57018900D01*
X76209500Y-57018900D01*
X76209500Y-57038900D01*
X76229500Y-57038900D01*
X76229500Y-57184900D01*
X76209500Y-57184900D01*
X76209500Y-58182150D01*
X76295135Y-58267785D01*
X75621681Y-58941239D01*
X73656000Y-58942233D01*
X73656000Y-58840833D01*
X73621990Y-58669853D01*
X73555277Y-58508793D01*
X73458424Y-58363843D01*
X73335155Y-58240574D01*
X73190205Y-58143721D01*
X73029145Y-58077008D01*
X72942152Y-58059704D01*
X72808260Y-57925812D01*
X72785240Y-57897762D01*
X72673322Y-57805913D01*
X72545635Y-57737663D01*
X72407087Y-57695635D01*
X72299107Y-57685000D01*
X72263002Y-57681444D01*
X72226897Y-57685000D01*
X70590948Y-57685000D01*
X70707398Y-57636765D01*
X70852348Y-57539912D01*
X70975617Y-57416643D01*
X71072470Y-57271693D01*
X71139183Y-57110633D01*
X71173193Y-56939653D01*
X71173193Y-56765323D01*
X71139183Y-56594343D01*
X71072470Y-56433283D01*
X70975617Y-56288333D01*
X70852348Y-56165064D01*
X70707398Y-56068211D01*
X70546338Y-56001498D01*
X70538148Y-55999869D01*
X70538148Y-54862405D01*
X70587425Y-54788657D01*
X70654138Y-54627597D01*
X70688148Y-54456617D01*
X70688148Y-54282287D01*
X70654138Y-54111307D01*
X70587425Y-53950247D01*
X70490572Y-53805297D01*
X70367303Y-53682028D01*
X70222353Y-53585175D01*
X70061293Y-53518462D01*
X69890313Y-53484452D01*
X69715983Y-53484452D01*
X69545003Y-53518462D01*
X69383943Y-53585175D01*
X69238993Y-53682028D01*
X69115724Y-53805297D01*
X69018871Y-53950247D01*
X68952158Y-54111307D01*
X68918148Y-54282287D01*
X68918148Y-54456617D01*
X68952158Y-54627597D01*
X69018871Y-54788657D01*
X69068149Y-54862406D01*
X69068148Y-56331338D01*
X69064592Y-56367443D01*
X69078783Y-56511528D01*
X69081439Y-56520282D01*
X69120811Y-56650075D01*
X69189061Y-56777762D01*
X69280910Y-56889680D01*
X69308956Y-56912697D01*
X69419899Y-57023640D01*
X69437203Y-57110633D01*
X69503916Y-57271693D01*
X69600769Y-57416643D01*
X69724038Y-57539912D01*
X69868988Y-57636765D01*
X69985438Y-57685000D01*
X67066453Y-57685000D01*
X66992705Y-57635723D01*
X66831645Y-57569010D01*
X66660665Y-57535000D01*
X66486335Y-57535000D01*
X66315355Y-57569010D01*
X66154295Y-57635723D01*
X66080547Y-57685000D01*
X62343947Y-57685000D01*
X60676309Y-56017363D01*
X60731490Y-55884145D01*
X60765500Y-55713165D01*
X60765500Y-55538835D01*
X60731490Y-55367855D01*
X60664777Y-55206795D01*
X60567924Y-55061845D01*
X60444655Y-54938576D01*
X60299705Y-54841723D01*
X60138645Y-54775010D01*
X59967665Y-54741000D01*
X59793335Y-54741000D01*
X59622355Y-54775010D01*
X59461295Y-54841723D01*
X59316345Y-54938576D01*
X59193076Y-55061845D01*
X59096223Y-55206795D01*
X59029510Y-55367855D01*
X58995500Y-55538835D01*
X58995500Y-55713165D01*
X59029510Y-55884145D01*
X59096223Y-56045205D01*
X59145500Y-56118953D01*
X59145500Y-56224895D01*
X59141944Y-56261000D01*
X59145500Y-56297105D01*
X59156135Y-56405085D01*
X59198163Y-56543633D01*
X59266414Y-56671320D01*
X59358263Y-56783238D01*
X59386308Y-56806254D01*
X61494246Y-58914193D01*
X61517262Y-58942238D01*
X61524737Y-58948373D01*
X53404472Y-58952482D01*
X53404472Y-58274500D01*
X53392212Y-58150018D01*
X53355902Y-58030320D01*
X53296937Y-57920006D01*
X53288900Y-57910213D01*
X53288900Y-57857298D01*
X53245474Y-57857298D01*
X53228200Y-57836250D01*
X53288900Y-57775550D01*
X53281067Y-57675952D01*
X53250734Y-57576673D01*
X53201616Y-57485219D01*
X53135599Y-57405104D01*
X53099972Y-57375984D01*
X53099972Y-57363969D01*
X53176635Y-57379218D01*
X53350965Y-57379218D01*
X53521945Y-57345208D01*
X53683005Y-57278495D01*
X53827955Y-57181642D01*
X53951224Y-57058373D01*
X54048077Y-56913423D01*
X54114790Y-56752363D01*
X54148800Y-56581383D01*
X54148800Y-56407053D01*
X54114790Y-56236073D01*
X54048077Y-56075013D01*
X53998800Y-56001265D01*
X53998800Y-54417694D01*
X54031467Y-54368805D01*
X54098180Y-54207745D01*
X54124418Y-54075836D01*
X54148999Y-54075836D01*
X54148999Y-54250166D01*
X54183009Y-54421146D01*
X54249722Y-54582206D01*
X54346575Y-54727156D01*
X54469844Y-54850425D01*
X54548999Y-54903315D01*
X54548998Y-56340093D01*
X54545442Y-56376198D01*
X54559633Y-56520283D01*
X54562679Y-56530323D01*
X54601661Y-56658830D01*
X54669911Y-56786517D01*
X54761760Y-56898435D01*
X54789806Y-56921452D01*
X56040295Y-58171942D01*
X56045010Y-58195645D01*
X56111723Y-58356705D01*
X56208576Y-58501655D01*
X56331845Y-58624924D01*
X56476795Y-58721777D01*
X56637855Y-58788490D01*
X56808835Y-58822500D01*
X56983165Y-58822500D01*
X57154145Y-58788490D01*
X57315205Y-58721777D01*
X57460155Y-58624924D01*
X57583424Y-58501655D01*
X57680277Y-58356705D01*
X57746990Y-58195645D01*
X57781000Y-58024665D01*
X57781000Y-57850335D01*
X57746990Y-57679355D01*
X57680277Y-57518295D01*
X57583424Y-57373345D01*
X57460155Y-57250076D01*
X57315205Y-57153223D01*
X57154145Y-57086510D01*
X57003864Y-57056617D01*
X56018998Y-56071752D01*
X56018998Y-54449105D01*
X56022554Y-54413000D01*
X56008363Y-54268914D01*
X55996285Y-54229100D01*
X55966335Y-54130367D01*
X55908218Y-54021638D01*
X55884989Y-53904856D01*
X55818276Y-53743796D01*
X55721423Y-53598846D01*
X55598154Y-53475577D01*
X55453204Y-53378724D01*
X55292144Y-53312011D01*
X55121164Y-53278001D01*
X54946834Y-53278001D01*
X54775854Y-53312011D01*
X54614794Y-53378724D01*
X54469844Y-53475577D01*
X54346575Y-53598846D01*
X54249722Y-53743796D01*
X54183009Y-53904856D01*
X54148999Y-54075836D01*
X54124418Y-54075836D01*
X54132190Y-54036765D01*
X54132190Y-53862435D01*
X54098180Y-53691455D01*
X54031467Y-53530395D01*
X53934614Y-53385445D01*
X53811345Y-53262176D01*
X53666395Y-53165323D01*
X53505335Y-53098610D01*
X53334355Y-53064600D01*
X53160025Y-53064600D01*
X53099972Y-53076545D01*
X53099972Y-53012416D01*
X53135599Y-52983296D01*
X53201616Y-52903181D01*
X53250734Y-52811727D01*
X53281067Y-52712448D01*
X53288900Y-52612850D01*
X53229943Y-52553893D01*
X53248647Y-52531102D01*
X53288900Y-52531102D01*
X53288900Y-52482054D01*
X53290837Y-52479694D01*
X53349802Y-52369380D01*
X53386112Y-52249682D01*
X53398372Y-52125200D01*
X53398372Y-51458685D01*
X56844382Y-51456941D01*
X56791795Y-51478723D01*
X56646845Y-51575576D01*
X56523576Y-51698845D01*
X56426723Y-51843795D01*
X56360010Y-52004855D01*
X56326000Y-52175835D01*
X56326000Y-52350165D01*
X56360010Y-52521145D01*
X56426723Y-52682205D01*
X56523576Y-52827155D01*
X56570691Y-52874270D01*
X56551664Y-52909867D01*
X56509635Y-53048415D01*
X56495444Y-53192500D01*
X56499001Y-53228614D01*
X56499001Y-53670046D01*
X56449723Y-53743795D01*
X56383010Y-53904855D01*
X56349000Y-54075835D01*
X56349000Y-54250165D01*
X56383010Y-54421145D01*
X56449723Y-54582205D01*
X56546576Y-54727155D01*
X56669845Y-54850424D01*
X56814795Y-54947277D01*
X56975855Y-55013990D01*
X57146835Y-55048000D01*
X57321165Y-55048000D01*
X57492145Y-55013990D01*
X57653205Y-54947277D01*
X57798155Y-54850424D01*
X57921424Y-54727155D01*
X58018277Y-54582205D01*
X58084990Y-54421145D01*
X58119000Y-54250165D01*
X58119000Y-54141851D01*
X60100500Y-54141851D01*
X60100500Y-54316181D01*
X60134510Y-54487161D01*
X60201223Y-54648221D01*
X60298076Y-54793171D01*
X60421345Y-54916440D01*
X60566295Y-55013293D01*
X60727355Y-55080006D01*
X60814243Y-55097289D01*
X61982045Y-56265092D01*
X61980010Y-56275325D01*
X61980010Y-56449655D01*
X62014020Y-56620635D01*
X62080733Y-56781695D01*
X62177586Y-56926645D01*
X62300855Y-57049914D01*
X62445805Y-57146767D01*
X62606865Y-57213480D01*
X62777845Y-57247490D01*
X62952175Y-57247490D01*
X63123155Y-57213480D01*
X63284215Y-57146767D01*
X63429165Y-57049914D01*
X63552434Y-56926645D01*
X63649287Y-56781695D01*
X63716000Y-56620635D01*
X63750010Y-56449655D01*
X63750010Y-56275325D01*
X63716000Y-56104345D01*
X63649287Y-55943285D01*
X63552434Y-55798335D01*
X63509766Y-55755667D01*
X63479097Y-55698290D01*
X63410263Y-55614416D01*
X63410260Y-55614413D01*
X63387247Y-55586372D01*
X63359207Y-55563360D01*
X61853815Y-54057969D01*
X61836490Y-53970871D01*
X61769777Y-53809811D01*
X61672924Y-53664861D01*
X61549655Y-53541592D01*
X61404705Y-53444739D01*
X61243645Y-53378026D01*
X61072665Y-53344016D01*
X60898335Y-53344016D01*
X60727355Y-53378026D01*
X60566295Y-53444739D01*
X60421345Y-53541592D01*
X60298076Y-53664861D01*
X60201223Y-53809811D01*
X60134510Y-53970871D01*
X60100500Y-54141851D01*
X58119000Y-54141851D01*
X58119000Y-54075835D01*
X58084990Y-53904855D01*
X58018277Y-53743795D01*
X57969000Y-53670047D01*
X57969000Y-53496946D01*
X58470447Y-52995500D01*
X66160585Y-52995500D01*
X66266039Y-53016476D01*
X66440369Y-53016476D01*
X66611349Y-52982466D01*
X66772409Y-52915753D01*
X66917359Y-52818900D01*
X67040628Y-52695631D01*
X67137481Y-52550681D01*
X67204194Y-52389621D01*
X67238204Y-52218641D01*
X67238204Y-52044311D01*
X67204194Y-51873331D01*
X67137481Y-51712271D01*
X67040628Y-51567321D01*
X66925146Y-51451839D01*
X75621958Y-51447438D01*
X75981572Y-51807053D01*
M02*
