M48
; DRILL file {KiCad (5.1.5-0)} date Tuesday, September 15, 2020 at 10:34:12 AM
; FORMAT={-:-/ absolute / inch / decimal}
; #@! TF.CreationDate,2020-09-15T10:34:12-07:00
; #@! TF.GenerationSoftware,Kicad,Pcbnew,(5.1.5-0)
; #@! TF.FileFunction,Plated,1,2,PTH
FMAT,2
INCH
T1C0.0118
T2C0.0315
%
G90
G05
T1
X2.0963Y-2.124
X2.097Y-2.065
X2.097Y-2.2242
X2.097Y-2.28
X2.1667Y-2.1324
X2.24Y-2.281
X2.2524Y-2.0576
X2.2533Y-2.1324
X2.3575Y-2.19
X2.401Y-2.135
X2.475Y-2.219
X2.48Y-2.126
X2.536Y-2.2535
X2.575Y-2.0358
X2.6123Y-2.0524
X2.621Y-2.3
X2.656Y-2.054
X2.7482Y-2.1405
X2.7673Y-2.2383
X2.865Y-2.32
T2
X2.9188Y-2.091
X2.9188Y-2.1698
X2.9188Y-2.2485
X2.9975Y-2.091
X2.9975Y-2.1698
X2.9975Y-2.2485
T0
M30
