G04 #@! TF.GenerationSoftware,KiCad,Pcbnew,(5.1.5-0)*
G04 #@! TF.CreationDate,2020-09-15T10:34:15-07:00*
G04 #@! TF.ProjectId,cereal,63657265-616c-42e6-9b69-6361645f7063,rev?*
G04 #@! TF.SameCoordinates,Original*
G04 #@! TF.FileFunction,Soldermask,Top*
G04 #@! TF.FilePolarity,Negative*
%FSLAX46Y46*%
G04 Gerber Fmt 4.6, Leading zero omitted, Abs format (unit mm)*
G04 Created by KiCad (PCBNEW (5.1.5-0)) date 2020-09-15 10:34:15*
%MOMM*%
%LPD*%
G04 APERTURE LIST*
%ADD10C,0.100000*%
G04 APERTURE END LIST*
D10*
G36*
X52812320Y-52132101D02*
G01*
X52812900Y-52137989D01*
X52812900Y-52659100D01*
X52637899Y-52659100D01*
X52613513Y-52661502D01*
X52590064Y-52668615D01*
X52568453Y-52680166D01*
X52549511Y-52695711D01*
X52533966Y-52714653D01*
X52522415Y-52736264D01*
X52515302Y-52759713D01*
X52512900Y-52784099D01*
X52512900Y-57604301D01*
X52515302Y-57628687D01*
X52522415Y-57652136D01*
X52533966Y-57673747D01*
X52549511Y-57692689D01*
X52568453Y-57708234D01*
X52590064Y-57719785D01*
X52613513Y-57726898D01*
X52637899Y-57729300D01*
X52812900Y-57729300D01*
X52812900Y-58098501D01*
X52815302Y-58122887D01*
X52817400Y-58129803D01*
X52817400Y-59505500D01*
X50865400Y-59505500D01*
X50865400Y-58256299D01*
X50862998Y-58231913D01*
X50860900Y-58224997D01*
X50860900Y-57729300D01*
X51035901Y-57729300D01*
X51060287Y-57726898D01*
X51083736Y-57719785D01*
X51105347Y-57708234D01*
X51124289Y-57692689D01*
X51139834Y-57673747D01*
X51151385Y-57652136D01*
X51158498Y-57628687D01*
X51160900Y-57604301D01*
X51160900Y-52784099D01*
X51158498Y-52759713D01*
X51151385Y-52736264D01*
X51139834Y-52714653D01*
X51124289Y-52695711D01*
X51105347Y-52680166D01*
X51083736Y-52668615D01*
X51060287Y-52661502D01*
X51035901Y-52659100D01*
X50860900Y-52659100D01*
X50860900Y-52301199D01*
X50860320Y-52295311D01*
X50860320Y-50894200D01*
X52812320Y-50894200D01*
X52812320Y-52132101D01*
G37*
G36*
X72186091Y-58025085D02*
G01*
X72220069Y-58035393D01*
X72251390Y-58052134D01*
X72278839Y-58074661D01*
X72301366Y-58102110D01*
X72318107Y-58133431D01*
X72328415Y-58167409D01*
X72332500Y-58208890D01*
X72332500Y-58885110D01*
X72328415Y-58926591D01*
X72318107Y-58960569D01*
X72301366Y-58991890D01*
X72278839Y-59019339D01*
X72251390Y-59041866D01*
X72220069Y-59058607D01*
X72186091Y-59068915D01*
X72144610Y-59073000D01*
X71543390Y-59073000D01*
X71501909Y-59068915D01*
X71467931Y-59058607D01*
X71436610Y-59041866D01*
X71409161Y-59019339D01*
X71386634Y-58991890D01*
X71369893Y-58960569D01*
X71359585Y-58926591D01*
X71355500Y-58885110D01*
X71355500Y-58208890D01*
X71359585Y-58167409D01*
X71369893Y-58133431D01*
X71386634Y-58102110D01*
X71409161Y-58074661D01*
X71436610Y-58052134D01*
X71467931Y-58035393D01*
X71501909Y-58025085D01*
X71543390Y-58021000D01*
X72144610Y-58021000D01*
X72186091Y-58025085D01*
G37*
G36*
X70611091Y-58025085D02*
G01*
X70645069Y-58035393D01*
X70676390Y-58052134D01*
X70703839Y-58074661D01*
X70726366Y-58102110D01*
X70743107Y-58133431D01*
X70753415Y-58167409D01*
X70757500Y-58208890D01*
X70757500Y-58885110D01*
X70753415Y-58926591D01*
X70743107Y-58960569D01*
X70726366Y-58991890D01*
X70703839Y-59019339D01*
X70676390Y-59041866D01*
X70645069Y-59058607D01*
X70611091Y-59068915D01*
X70569610Y-59073000D01*
X69968390Y-59073000D01*
X69926909Y-59068915D01*
X69892931Y-59058607D01*
X69861610Y-59041866D01*
X69834161Y-59019339D01*
X69811634Y-58991890D01*
X69794893Y-58960569D01*
X69784585Y-58926591D01*
X69780500Y-58885110D01*
X69780500Y-58208890D01*
X69784585Y-58167409D01*
X69794893Y-58133431D01*
X69811634Y-58102110D01*
X69834161Y-58074661D01*
X69861610Y-58052134D01*
X69892931Y-58035393D01*
X69926909Y-58025085D01*
X69968390Y-58021000D01*
X70569610Y-58021000D01*
X70611091Y-58025085D01*
G37*
G36*
X66915591Y-57898085D02*
G01*
X66949569Y-57908393D01*
X66980890Y-57925134D01*
X67008339Y-57947661D01*
X67030866Y-57975110D01*
X67047607Y-58006431D01*
X67057915Y-58040409D01*
X67062000Y-58081890D01*
X67062000Y-58758110D01*
X67057915Y-58799591D01*
X67047607Y-58833569D01*
X67030866Y-58864890D01*
X67008339Y-58892339D01*
X66980890Y-58914866D01*
X66949569Y-58931607D01*
X66915591Y-58941915D01*
X66874110Y-58946000D01*
X66272890Y-58946000D01*
X66231409Y-58941915D01*
X66197431Y-58931607D01*
X66166110Y-58914866D01*
X66138661Y-58892339D01*
X66116134Y-58864890D01*
X66099393Y-58833569D01*
X66089085Y-58799591D01*
X66085000Y-58758110D01*
X66085000Y-58081890D01*
X66089085Y-58040409D01*
X66099393Y-58006431D01*
X66116134Y-57975110D01*
X66138661Y-57947661D01*
X66166110Y-57925134D01*
X66197431Y-57908393D01*
X66231409Y-57898085D01*
X66272890Y-57894000D01*
X66874110Y-57894000D01*
X66915591Y-57898085D01*
G37*
G36*
X65340591Y-57898085D02*
G01*
X65374569Y-57908393D01*
X65405890Y-57925134D01*
X65433339Y-57947661D01*
X65455866Y-57975110D01*
X65472607Y-58006431D01*
X65482915Y-58040409D01*
X65487000Y-58081890D01*
X65487000Y-58758110D01*
X65482915Y-58799591D01*
X65472607Y-58833569D01*
X65455866Y-58864890D01*
X65433339Y-58892339D01*
X65405890Y-58914866D01*
X65374569Y-58931607D01*
X65340591Y-58941915D01*
X65299110Y-58946000D01*
X64697890Y-58946000D01*
X64656409Y-58941915D01*
X64622431Y-58931607D01*
X64591110Y-58914866D01*
X64563661Y-58892339D01*
X64541134Y-58864890D01*
X64524393Y-58833569D01*
X64514085Y-58799591D01*
X64510000Y-58758110D01*
X64510000Y-58081890D01*
X64514085Y-58040409D01*
X64524393Y-58006431D01*
X64541134Y-57975110D01*
X64563661Y-57947661D01*
X64591110Y-57925134D01*
X64622431Y-57908393D01*
X64656409Y-57898085D01*
X64697890Y-57894000D01*
X65299110Y-57894000D01*
X65340591Y-57898085D01*
G37*
G36*
X59307591Y-57453085D02*
G01*
X59341569Y-57463393D01*
X59372890Y-57480134D01*
X59400339Y-57502661D01*
X59422866Y-57530110D01*
X59439607Y-57561431D01*
X59449915Y-57595409D01*
X59454000Y-57636890D01*
X59454000Y-58238110D01*
X59449915Y-58279591D01*
X59439607Y-58313569D01*
X59422866Y-58344890D01*
X59400339Y-58372339D01*
X59372890Y-58394866D01*
X59341569Y-58411607D01*
X59307591Y-58421915D01*
X59266110Y-58426000D01*
X58589890Y-58426000D01*
X58548409Y-58421915D01*
X58514431Y-58411607D01*
X58483110Y-58394866D01*
X58455661Y-58372339D01*
X58433134Y-58344890D01*
X58416393Y-58313569D01*
X58406085Y-58279591D01*
X58402000Y-58238110D01*
X58402000Y-57636890D01*
X58406085Y-57595409D01*
X58416393Y-57561431D01*
X58433134Y-57530110D01*
X58455661Y-57502661D01*
X58483110Y-57480134D01*
X58514431Y-57463393D01*
X58548409Y-57453085D01*
X58589890Y-57449000D01*
X59266110Y-57449000D01*
X59307591Y-57453085D01*
G37*
G36*
X61339591Y-57453085D02*
G01*
X61373569Y-57463393D01*
X61404890Y-57480134D01*
X61432339Y-57502661D01*
X61454866Y-57530110D01*
X61471607Y-57561431D01*
X61481915Y-57595409D01*
X61486000Y-57636890D01*
X61486000Y-58238110D01*
X61481915Y-58279591D01*
X61471607Y-58313569D01*
X61454866Y-58344890D01*
X61432339Y-58372339D01*
X61404890Y-58394866D01*
X61373569Y-58411607D01*
X61339591Y-58421915D01*
X61298110Y-58426000D01*
X60621890Y-58426000D01*
X60580409Y-58421915D01*
X60546431Y-58411607D01*
X60515110Y-58394866D01*
X60487661Y-58372339D01*
X60465134Y-58344890D01*
X60448393Y-58313569D01*
X60438085Y-58279591D01*
X60434000Y-58238110D01*
X60434000Y-57636890D01*
X60438085Y-57595409D01*
X60448393Y-57561431D01*
X60465134Y-57530110D01*
X60487661Y-57502661D01*
X60515110Y-57480134D01*
X60546431Y-57463393D01*
X60580409Y-57453085D01*
X60621890Y-57449000D01*
X61298110Y-57449000D01*
X61339591Y-57453085D01*
G37*
G36*
X57275591Y-57453085D02*
G01*
X57309569Y-57463393D01*
X57340890Y-57480134D01*
X57368339Y-57502661D01*
X57390866Y-57530110D01*
X57407607Y-57561431D01*
X57417915Y-57595409D01*
X57422000Y-57636890D01*
X57422000Y-58238110D01*
X57417915Y-58279591D01*
X57407607Y-58313569D01*
X57390866Y-58344890D01*
X57368339Y-58372339D01*
X57340890Y-58394866D01*
X57309569Y-58411607D01*
X57275591Y-58421915D01*
X57234110Y-58426000D01*
X56557890Y-58426000D01*
X56516409Y-58421915D01*
X56482431Y-58411607D01*
X56451110Y-58394866D01*
X56423661Y-58372339D01*
X56401134Y-58344890D01*
X56384393Y-58313569D01*
X56374085Y-58279591D01*
X56370000Y-58238110D01*
X56370000Y-57636890D01*
X56374085Y-57595409D01*
X56384393Y-57561431D01*
X56401134Y-57530110D01*
X56423661Y-57502661D01*
X56451110Y-57480134D01*
X56482431Y-57463393D01*
X56516409Y-57453085D01*
X56557890Y-57449000D01*
X57234110Y-57449000D01*
X57275591Y-57453085D01*
G37*
G36*
X63244591Y-57453085D02*
G01*
X63278569Y-57463393D01*
X63309890Y-57480134D01*
X63337339Y-57502661D01*
X63359866Y-57530110D01*
X63376607Y-57561431D01*
X63386915Y-57595409D01*
X63391000Y-57636890D01*
X63391000Y-58238110D01*
X63386915Y-58279591D01*
X63376607Y-58313569D01*
X63359866Y-58344890D01*
X63337339Y-58372339D01*
X63309890Y-58394866D01*
X63278569Y-58411607D01*
X63244591Y-58421915D01*
X63203110Y-58426000D01*
X62526890Y-58426000D01*
X62485409Y-58421915D01*
X62451431Y-58411607D01*
X62420110Y-58394866D01*
X62392661Y-58372339D01*
X62370134Y-58344890D01*
X62353393Y-58313569D01*
X62343085Y-58279591D01*
X62339000Y-58238110D01*
X62339000Y-57636890D01*
X62343085Y-57595409D01*
X62353393Y-57561431D01*
X62370134Y-57530110D01*
X62392661Y-57502661D01*
X62420110Y-57480134D01*
X62451431Y-57463393D01*
X62485409Y-57453085D01*
X62526890Y-57449000D01*
X63203110Y-57449000D01*
X63244591Y-57453085D01*
G37*
G36*
X55243591Y-57453085D02*
G01*
X55277569Y-57463393D01*
X55308890Y-57480134D01*
X55336339Y-57502661D01*
X55358866Y-57530110D01*
X55375607Y-57561431D01*
X55385915Y-57595409D01*
X55390000Y-57636890D01*
X55390000Y-58238110D01*
X55385915Y-58279591D01*
X55375607Y-58313569D01*
X55358866Y-58344890D01*
X55336339Y-58372339D01*
X55308890Y-58394866D01*
X55277569Y-58411607D01*
X55243591Y-58421915D01*
X55202110Y-58426000D01*
X54525890Y-58426000D01*
X54484409Y-58421915D01*
X54450431Y-58411607D01*
X54419110Y-58394866D01*
X54391661Y-58372339D01*
X54369134Y-58344890D01*
X54352393Y-58313569D01*
X54342085Y-58279591D01*
X54338000Y-58238110D01*
X54338000Y-57636890D01*
X54342085Y-57595409D01*
X54352393Y-57561431D01*
X54369134Y-57530110D01*
X54391661Y-57502661D01*
X54419110Y-57480134D01*
X54450431Y-57463393D01*
X54484409Y-57453085D01*
X54525890Y-57449000D01*
X55202110Y-57449000D01*
X55243591Y-57453085D01*
G37*
G36*
X74348266Y-56413799D02*
G01*
X74480388Y-56468526D01*
X74480390Y-56468527D01*
X74599298Y-56547979D01*
X74700421Y-56649102D01*
X74760201Y-56738569D01*
X74779874Y-56768012D01*
X74834601Y-56900134D01*
X74862500Y-57040394D01*
X74862500Y-57183406D01*
X74834601Y-57323666D01*
X74780742Y-57453693D01*
X74779873Y-57455790D01*
X74700421Y-57574698D01*
X74599298Y-57675821D01*
X74480390Y-57755273D01*
X74480389Y-57755274D01*
X74480388Y-57755274D01*
X74348266Y-57810001D01*
X74208006Y-57837900D01*
X74064994Y-57837900D01*
X73924734Y-57810001D01*
X73792612Y-57755274D01*
X73792611Y-57755274D01*
X73792610Y-57755273D01*
X73673702Y-57675821D01*
X73572579Y-57574698D01*
X73493127Y-57455790D01*
X73492258Y-57453693D01*
X73438399Y-57323666D01*
X73410500Y-57183406D01*
X73410500Y-57040394D01*
X73438399Y-56900134D01*
X73493126Y-56768012D01*
X73512799Y-56738569D01*
X73572579Y-56649102D01*
X73673702Y-56547979D01*
X73792610Y-56468527D01*
X73792612Y-56468526D01*
X73924734Y-56413799D01*
X74064994Y-56385900D01*
X74208006Y-56385900D01*
X74348266Y-56413799D01*
G37*
G36*
X76862500Y-57837900D02*
G01*
X75410500Y-57837900D01*
X75410500Y-56385900D01*
X76862500Y-56385900D01*
X76862500Y-57837900D01*
G37*
G36*
X72186091Y-56437585D02*
G01*
X72220069Y-56447893D01*
X72251390Y-56464634D01*
X72278839Y-56487161D01*
X72301366Y-56514610D01*
X72318107Y-56545931D01*
X72328415Y-56579909D01*
X72332500Y-56621390D01*
X72332500Y-57297610D01*
X72328415Y-57339091D01*
X72318107Y-57373069D01*
X72301366Y-57404390D01*
X72278839Y-57431839D01*
X72251390Y-57454366D01*
X72220069Y-57471107D01*
X72186091Y-57481415D01*
X72144610Y-57485500D01*
X71543390Y-57485500D01*
X71501909Y-57481415D01*
X71467931Y-57471107D01*
X71436610Y-57454366D01*
X71409161Y-57431839D01*
X71386634Y-57404390D01*
X71369893Y-57373069D01*
X71359585Y-57339091D01*
X71355500Y-57297610D01*
X71355500Y-56621390D01*
X71359585Y-56579909D01*
X71369893Y-56545931D01*
X71386634Y-56514610D01*
X71409161Y-56487161D01*
X71436610Y-56464634D01*
X71467931Y-56447893D01*
X71501909Y-56437585D01*
X71543390Y-56433500D01*
X72144610Y-56433500D01*
X72186091Y-56437585D01*
G37*
G36*
X70611091Y-56437585D02*
G01*
X70645069Y-56447893D01*
X70676390Y-56464634D01*
X70703839Y-56487161D01*
X70726366Y-56514610D01*
X70743107Y-56545931D01*
X70753415Y-56579909D01*
X70757500Y-56621390D01*
X70757500Y-57297610D01*
X70753415Y-57339091D01*
X70743107Y-57373069D01*
X70726366Y-57404390D01*
X70703839Y-57431839D01*
X70676390Y-57454366D01*
X70645069Y-57471107D01*
X70611091Y-57481415D01*
X70569610Y-57485500D01*
X69968390Y-57485500D01*
X69926909Y-57481415D01*
X69892931Y-57471107D01*
X69861610Y-57454366D01*
X69834161Y-57431839D01*
X69811634Y-57404390D01*
X69794893Y-57373069D01*
X69784585Y-57339091D01*
X69780500Y-57297610D01*
X69780500Y-56621390D01*
X69784585Y-56579909D01*
X69794893Y-56545931D01*
X69811634Y-56514610D01*
X69834161Y-56487161D01*
X69861610Y-56464634D01*
X69892931Y-56447893D01*
X69926909Y-56437585D01*
X69968390Y-56433500D01*
X70569610Y-56433500D01*
X70611091Y-56437585D01*
G37*
G36*
X67499000Y-53542001D02*
G01*
X67501402Y-53566387D01*
X67508515Y-53589836D01*
X67520066Y-53611447D01*
X67535611Y-53630389D01*
X67554553Y-53645934D01*
X67576164Y-53657485D01*
X67599613Y-53664598D01*
X67623999Y-53667000D01*
X67999000Y-53667000D01*
X67999000Y-54042001D01*
X68001402Y-54066387D01*
X68008515Y-54089836D01*
X68020066Y-54111447D01*
X68035611Y-54130389D01*
X68054553Y-54145934D01*
X68076164Y-54157485D01*
X68099613Y-54164598D01*
X68123999Y-54167000D01*
X68599000Y-54167000D01*
X68599000Y-56069000D01*
X68123999Y-56069000D01*
X68099613Y-56071402D01*
X68076164Y-56078515D01*
X68054553Y-56090066D01*
X68035611Y-56105611D01*
X68020066Y-56124553D01*
X68008515Y-56146164D01*
X68001402Y-56169613D01*
X67999000Y-56193999D01*
X67999000Y-56569000D01*
X67623999Y-56569000D01*
X67599613Y-56571402D01*
X67576164Y-56578515D01*
X67554553Y-56590066D01*
X67535611Y-56605611D01*
X67520066Y-56624553D01*
X67508515Y-56646164D01*
X67501402Y-56669613D01*
X67499000Y-56693999D01*
X67499000Y-57169000D01*
X65597000Y-57169000D01*
X65597000Y-56693999D01*
X65594598Y-56669613D01*
X65587485Y-56646164D01*
X65575934Y-56624553D01*
X65560389Y-56605611D01*
X65541447Y-56590066D01*
X65519836Y-56578515D01*
X65496387Y-56571402D01*
X65472001Y-56569000D01*
X65097000Y-56569000D01*
X65097000Y-56193999D01*
X65094598Y-56169613D01*
X65087485Y-56146164D01*
X65075934Y-56124553D01*
X65060389Y-56105611D01*
X65041447Y-56090066D01*
X65019836Y-56078515D01*
X64996387Y-56071402D01*
X64972001Y-56069000D01*
X64497000Y-56069000D01*
X64497000Y-54167000D01*
X64972001Y-54167000D01*
X64996387Y-54164598D01*
X65019836Y-54157485D01*
X65041447Y-54145934D01*
X65060389Y-54130389D01*
X65075934Y-54111447D01*
X65087485Y-54089836D01*
X65094598Y-54066387D01*
X65097000Y-54042001D01*
X65097000Y-53667000D01*
X65472001Y-53667000D01*
X65496387Y-53664598D01*
X65519836Y-53657485D01*
X65541447Y-53645934D01*
X65560389Y-53630389D01*
X65575934Y-53611447D01*
X65587485Y-53589836D01*
X65594598Y-53566387D01*
X65597000Y-53542001D01*
X65597000Y-53067000D01*
X67499000Y-53067000D01*
X67499000Y-53542001D01*
G37*
G36*
X55243591Y-55878085D02*
G01*
X55277569Y-55888393D01*
X55308890Y-55905134D01*
X55336339Y-55927661D01*
X55358866Y-55955110D01*
X55375607Y-55986431D01*
X55385915Y-56020409D01*
X55390000Y-56061890D01*
X55390000Y-56663110D01*
X55385915Y-56704591D01*
X55375607Y-56738569D01*
X55358866Y-56769890D01*
X55336339Y-56797339D01*
X55308890Y-56819866D01*
X55277569Y-56836607D01*
X55243591Y-56846915D01*
X55202110Y-56851000D01*
X54525890Y-56851000D01*
X54484409Y-56846915D01*
X54450431Y-56836607D01*
X54419110Y-56819866D01*
X54391661Y-56797339D01*
X54369134Y-56769890D01*
X54352393Y-56738569D01*
X54342085Y-56704591D01*
X54338000Y-56663110D01*
X54338000Y-56061890D01*
X54342085Y-56020409D01*
X54352393Y-55986431D01*
X54369134Y-55955110D01*
X54391661Y-55927661D01*
X54419110Y-55905134D01*
X54450431Y-55888393D01*
X54484409Y-55878085D01*
X54525890Y-55874000D01*
X55202110Y-55874000D01*
X55243591Y-55878085D01*
G37*
G36*
X63244591Y-55878085D02*
G01*
X63278569Y-55888393D01*
X63309890Y-55905134D01*
X63337339Y-55927661D01*
X63359866Y-55955110D01*
X63376607Y-55986431D01*
X63386915Y-56020409D01*
X63391000Y-56061890D01*
X63391000Y-56663110D01*
X63386915Y-56704591D01*
X63376607Y-56738569D01*
X63359866Y-56769890D01*
X63337339Y-56797339D01*
X63309890Y-56819866D01*
X63278569Y-56836607D01*
X63244591Y-56846915D01*
X63203110Y-56851000D01*
X62526890Y-56851000D01*
X62485409Y-56846915D01*
X62451431Y-56836607D01*
X62420110Y-56819866D01*
X62392661Y-56797339D01*
X62370134Y-56769890D01*
X62353393Y-56738569D01*
X62343085Y-56704591D01*
X62339000Y-56663110D01*
X62339000Y-56061890D01*
X62343085Y-56020409D01*
X62353393Y-55986431D01*
X62370134Y-55955110D01*
X62392661Y-55927661D01*
X62420110Y-55905134D01*
X62451431Y-55888393D01*
X62485409Y-55878085D01*
X62526890Y-55874000D01*
X63203110Y-55874000D01*
X63244591Y-55878085D01*
G37*
G36*
X61339591Y-55878085D02*
G01*
X61373569Y-55888393D01*
X61404890Y-55905134D01*
X61432339Y-55927661D01*
X61454866Y-55955110D01*
X61471607Y-55986431D01*
X61481915Y-56020409D01*
X61486000Y-56061890D01*
X61486000Y-56663110D01*
X61481915Y-56704591D01*
X61471607Y-56738569D01*
X61454866Y-56769890D01*
X61432339Y-56797339D01*
X61404890Y-56819866D01*
X61373569Y-56836607D01*
X61339591Y-56846915D01*
X61298110Y-56851000D01*
X60621890Y-56851000D01*
X60580409Y-56846915D01*
X60546431Y-56836607D01*
X60515110Y-56819866D01*
X60487661Y-56797339D01*
X60465134Y-56769890D01*
X60448393Y-56738569D01*
X60438085Y-56704591D01*
X60434000Y-56663110D01*
X60434000Y-56061890D01*
X60438085Y-56020409D01*
X60448393Y-55986431D01*
X60465134Y-55955110D01*
X60487661Y-55927661D01*
X60515110Y-55905134D01*
X60546431Y-55888393D01*
X60580409Y-55878085D01*
X60621890Y-55874000D01*
X61298110Y-55874000D01*
X61339591Y-55878085D01*
G37*
G36*
X59307591Y-55878085D02*
G01*
X59341569Y-55888393D01*
X59372890Y-55905134D01*
X59400339Y-55927661D01*
X59422866Y-55955110D01*
X59439607Y-55986431D01*
X59449915Y-56020409D01*
X59454000Y-56061890D01*
X59454000Y-56663110D01*
X59449915Y-56704591D01*
X59439607Y-56738569D01*
X59422866Y-56769890D01*
X59400339Y-56797339D01*
X59372890Y-56819866D01*
X59341569Y-56836607D01*
X59307591Y-56846915D01*
X59266110Y-56851000D01*
X58589890Y-56851000D01*
X58548409Y-56846915D01*
X58514431Y-56836607D01*
X58483110Y-56819866D01*
X58455661Y-56797339D01*
X58433134Y-56769890D01*
X58416393Y-56738569D01*
X58406085Y-56704591D01*
X58402000Y-56663110D01*
X58402000Y-56061890D01*
X58406085Y-56020409D01*
X58416393Y-55986431D01*
X58433134Y-55955110D01*
X58455661Y-55927661D01*
X58483110Y-55905134D01*
X58514431Y-55888393D01*
X58548409Y-55878085D01*
X58589890Y-55874000D01*
X59266110Y-55874000D01*
X59307591Y-55878085D01*
G37*
G36*
X57275591Y-55878085D02*
G01*
X57309569Y-55888393D01*
X57340890Y-55905134D01*
X57368339Y-55927661D01*
X57390866Y-55955110D01*
X57407607Y-55986431D01*
X57417915Y-56020409D01*
X57422000Y-56061890D01*
X57422000Y-56663110D01*
X57417915Y-56704591D01*
X57407607Y-56738569D01*
X57390866Y-56769890D01*
X57368339Y-56797339D01*
X57340890Y-56819866D01*
X57309569Y-56836607D01*
X57275591Y-56846915D01*
X57234110Y-56851000D01*
X56557890Y-56851000D01*
X56516409Y-56846915D01*
X56482431Y-56836607D01*
X56451110Y-56819866D01*
X56423661Y-56797339D01*
X56401134Y-56769890D01*
X56384393Y-56738569D01*
X56374085Y-56704591D01*
X56370000Y-56663110D01*
X56370000Y-56061890D01*
X56374085Y-56020409D01*
X56384393Y-55986431D01*
X56401134Y-55955110D01*
X56423661Y-55927661D01*
X56451110Y-55905134D01*
X56482431Y-55888393D01*
X56516409Y-55878085D01*
X56557890Y-55874000D01*
X57234110Y-55874000D01*
X57275591Y-55878085D01*
G37*
G36*
X74348266Y-54413799D02*
G01*
X74480388Y-54468526D01*
X74480390Y-54468527D01*
X74599298Y-54547979D01*
X74700421Y-54649102D01*
X74750377Y-54723866D01*
X74779874Y-54768012D01*
X74834601Y-54900134D01*
X74862500Y-55040394D01*
X74862500Y-55183406D01*
X74834601Y-55323666D01*
X74779874Y-55455788D01*
X74779873Y-55455790D01*
X74700421Y-55574698D01*
X74599298Y-55675821D01*
X74480390Y-55755273D01*
X74480389Y-55755274D01*
X74480388Y-55755274D01*
X74348266Y-55810001D01*
X74208006Y-55837900D01*
X74064994Y-55837900D01*
X73924734Y-55810001D01*
X73792612Y-55755274D01*
X73792611Y-55755274D01*
X73792610Y-55755273D01*
X73673702Y-55675821D01*
X73572579Y-55574698D01*
X73493127Y-55455790D01*
X73493126Y-55455788D01*
X73438399Y-55323666D01*
X73410500Y-55183406D01*
X73410500Y-55040394D01*
X73438399Y-54900134D01*
X73493126Y-54768012D01*
X73522623Y-54723866D01*
X73572579Y-54649102D01*
X73673702Y-54547979D01*
X73792610Y-54468527D01*
X73792612Y-54468526D01*
X73924734Y-54413799D01*
X74064994Y-54385900D01*
X74208006Y-54385900D01*
X74348266Y-54413799D01*
G37*
G36*
X76348266Y-54413799D02*
G01*
X76480388Y-54468526D01*
X76480390Y-54468527D01*
X76599298Y-54547979D01*
X76700421Y-54649102D01*
X76750377Y-54723866D01*
X76779874Y-54768012D01*
X76834601Y-54900134D01*
X76862500Y-55040394D01*
X76862500Y-55183406D01*
X76834601Y-55323666D01*
X76779874Y-55455788D01*
X76779873Y-55455790D01*
X76700421Y-55574698D01*
X76599298Y-55675821D01*
X76480390Y-55755273D01*
X76480389Y-55755274D01*
X76480388Y-55755274D01*
X76348266Y-55810001D01*
X76208006Y-55837900D01*
X76064994Y-55837900D01*
X75924734Y-55810001D01*
X75792612Y-55755274D01*
X75792611Y-55755274D01*
X75792610Y-55755273D01*
X75673702Y-55675821D01*
X75572579Y-55574698D01*
X75493127Y-55455790D01*
X75493126Y-55455788D01*
X75438399Y-55323666D01*
X75410500Y-55183406D01*
X75410500Y-55040394D01*
X75438399Y-54900134D01*
X75493126Y-54768012D01*
X75522623Y-54723866D01*
X75572579Y-54649102D01*
X75673702Y-54547979D01*
X75792610Y-54468527D01*
X75792612Y-54468526D01*
X75924734Y-54413799D01*
X76064994Y-54385900D01*
X76208006Y-54385900D01*
X76348266Y-54413799D01*
G37*
G36*
X59752591Y-53707085D02*
G01*
X59786569Y-53717393D01*
X59817890Y-53734134D01*
X59845339Y-53756661D01*
X59867866Y-53784110D01*
X59884607Y-53815431D01*
X59894915Y-53849409D01*
X59899000Y-53890890D01*
X59899000Y-54567110D01*
X59894915Y-54608591D01*
X59884607Y-54642569D01*
X59867866Y-54673890D01*
X59845339Y-54701339D01*
X59817890Y-54723866D01*
X59786569Y-54740607D01*
X59752591Y-54750915D01*
X59711110Y-54755000D01*
X59109890Y-54755000D01*
X59068409Y-54750915D01*
X59034431Y-54740607D01*
X59003110Y-54723866D01*
X58975661Y-54701339D01*
X58953134Y-54673890D01*
X58936393Y-54642569D01*
X58926085Y-54608591D01*
X58922000Y-54567110D01*
X58922000Y-53890890D01*
X58926085Y-53849409D01*
X58936393Y-53815431D01*
X58953134Y-53784110D01*
X58975661Y-53756661D01*
X59003110Y-53734134D01*
X59034431Y-53717393D01*
X59068409Y-53707085D01*
X59109890Y-53703000D01*
X59711110Y-53703000D01*
X59752591Y-53707085D01*
G37*
G36*
X61327591Y-53707085D02*
G01*
X61361569Y-53717393D01*
X61392890Y-53734134D01*
X61420339Y-53756661D01*
X61442866Y-53784110D01*
X61459607Y-53815431D01*
X61469915Y-53849409D01*
X61474000Y-53890890D01*
X61474000Y-54567110D01*
X61469915Y-54608591D01*
X61459607Y-54642569D01*
X61442866Y-54673890D01*
X61420339Y-54701339D01*
X61392890Y-54723866D01*
X61361569Y-54740607D01*
X61327591Y-54750915D01*
X61286110Y-54755000D01*
X60684890Y-54755000D01*
X60643409Y-54750915D01*
X60609431Y-54740607D01*
X60578110Y-54723866D01*
X60550661Y-54701339D01*
X60528134Y-54673890D01*
X60511393Y-54642569D01*
X60501085Y-54608591D01*
X60497000Y-54567110D01*
X60497000Y-53890890D01*
X60501085Y-53849409D01*
X60511393Y-53815431D01*
X60528134Y-53784110D01*
X60550661Y-53756661D01*
X60578110Y-53734134D01*
X60609431Y-53717393D01*
X60643409Y-53707085D01*
X60684890Y-53703000D01*
X61286110Y-53703000D01*
X61327591Y-53707085D01*
G37*
G36*
X57985000Y-54714000D02*
G01*
X56483000Y-54714000D01*
X56483000Y-53612000D01*
X57985000Y-53612000D01*
X57985000Y-54714000D01*
G37*
G36*
X55785000Y-54714000D02*
G01*
X54283000Y-54714000D01*
X54283000Y-53612000D01*
X55785000Y-53612000D01*
X55785000Y-54714000D01*
G37*
G36*
X63371591Y-53516085D02*
G01*
X63405569Y-53526393D01*
X63436890Y-53543134D01*
X63464339Y-53565661D01*
X63486866Y-53593110D01*
X63503607Y-53624431D01*
X63513915Y-53658409D01*
X63518000Y-53699890D01*
X63518000Y-54301110D01*
X63513915Y-54342591D01*
X63503607Y-54376569D01*
X63486866Y-54407890D01*
X63464339Y-54435339D01*
X63436890Y-54457866D01*
X63405569Y-54474607D01*
X63371591Y-54484915D01*
X63330110Y-54489000D01*
X62653890Y-54489000D01*
X62612409Y-54484915D01*
X62578431Y-54474607D01*
X62547110Y-54457866D01*
X62519661Y-54435339D01*
X62497134Y-54407890D01*
X62480393Y-54376569D01*
X62470085Y-54342591D01*
X62466000Y-54301110D01*
X62466000Y-53699890D01*
X62470085Y-53658409D01*
X62480393Y-53624431D01*
X62497134Y-53593110D01*
X62519661Y-53565661D01*
X62547110Y-53543134D01*
X62578431Y-53526393D01*
X62612409Y-53516085D01*
X62653890Y-53512000D01*
X63330110Y-53512000D01*
X63371591Y-53516085D01*
G37*
G36*
X70611091Y-52945085D02*
G01*
X70645069Y-52955393D01*
X70676390Y-52972134D01*
X70703839Y-52994661D01*
X70726366Y-53022110D01*
X70743107Y-53053431D01*
X70753415Y-53087409D01*
X70757500Y-53128890D01*
X70757500Y-53805110D01*
X70753415Y-53846591D01*
X70743107Y-53880569D01*
X70726366Y-53911890D01*
X70703839Y-53939339D01*
X70676390Y-53961866D01*
X70645069Y-53978607D01*
X70611091Y-53988915D01*
X70569610Y-53993000D01*
X69968390Y-53993000D01*
X69926909Y-53988915D01*
X69892931Y-53978607D01*
X69861610Y-53961866D01*
X69834161Y-53939339D01*
X69811634Y-53911890D01*
X69794893Y-53880569D01*
X69784585Y-53846591D01*
X69780500Y-53805110D01*
X69780500Y-53128890D01*
X69784585Y-53087409D01*
X69794893Y-53053431D01*
X69811634Y-53022110D01*
X69834161Y-52994661D01*
X69861610Y-52972134D01*
X69892931Y-52955393D01*
X69926909Y-52945085D01*
X69968390Y-52941000D01*
X70569610Y-52941000D01*
X70611091Y-52945085D01*
G37*
G36*
X72186091Y-52945085D02*
G01*
X72220069Y-52955393D01*
X72251390Y-52972134D01*
X72278839Y-52994661D01*
X72301366Y-53022110D01*
X72318107Y-53053431D01*
X72328415Y-53087409D01*
X72332500Y-53128890D01*
X72332500Y-53805110D01*
X72328415Y-53846591D01*
X72318107Y-53880569D01*
X72301366Y-53911890D01*
X72278839Y-53939339D01*
X72251390Y-53961866D01*
X72220069Y-53978607D01*
X72186091Y-53988915D01*
X72144610Y-53993000D01*
X71543390Y-53993000D01*
X71501909Y-53988915D01*
X71467931Y-53978607D01*
X71436610Y-53961866D01*
X71409161Y-53939339D01*
X71386634Y-53911890D01*
X71369893Y-53880569D01*
X71359585Y-53846591D01*
X71355500Y-53805110D01*
X71355500Y-53128890D01*
X71359585Y-53087409D01*
X71369893Y-53053431D01*
X71386634Y-53022110D01*
X71409161Y-52994661D01*
X71436610Y-52972134D01*
X71467931Y-52955393D01*
X71501909Y-52945085D01*
X71543390Y-52941000D01*
X72144610Y-52941000D01*
X72186091Y-52945085D01*
G37*
G36*
X74348266Y-52413799D02*
G01*
X74480388Y-52468526D01*
X74480390Y-52468527D01*
X74599298Y-52547979D01*
X74700421Y-52649102D01*
X74749798Y-52723000D01*
X74779874Y-52768012D01*
X74834601Y-52900134D01*
X74862500Y-53040394D01*
X74862500Y-53183406D01*
X74834601Y-53323666D01*
X74779874Y-53455788D01*
X74779873Y-53455790D01*
X74700421Y-53574698D01*
X74599298Y-53675821D01*
X74480390Y-53755273D01*
X74480389Y-53755274D01*
X74480388Y-53755274D01*
X74348266Y-53810001D01*
X74208006Y-53837900D01*
X74064994Y-53837900D01*
X73924734Y-53810001D01*
X73792612Y-53755274D01*
X73792611Y-53755274D01*
X73792610Y-53755273D01*
X73673702Y-53675821D01*
X73572579Y-53574698D01*
X73493127Y-53455790D01*
X73493126Y-53455788D01*
X73438399Y-53323666D01*
X73410500Y-53183406D01*
X73410500Y-53040394D01*
X73438399Y-52900134D01*
X73493126Y-52768012D01*
X73523202Y-52723000D01*
X73572579Y-52649102D01*
X73673702Y-52547979D01*
X73792610Y-52468527D01*
X73792612Y-52468526D01*
X73924734Y-52413799D01*
X74064994Y-52385900D01*
X74208006Y-52385900D01*
X74348266Y-52413799D01*
G37*
G36*
X76348266Y-52413799D02*
G01*
X76480388Y-52468526D01*
X76480390Y-52468527D01*
X76599298Y-52547979D01*
X76700421Y-52649102D01*
X76749798Y-52723000D01*
X76779874Y-52768012D01*
X76834601Y-52900134D01*
X76862500Y-53040394D01*
X76862500Y-53183406D01*
X76834601Y-53323666D01*
X76779874Y-53455788D01*
X76779873Y-53455790D01*
X76700421Y-53574698D01*
X76599298Y-53675821D01*
X76480390Y-53755273D01*
X76480389Y-53755274D01*
X76480388Y-53755274D01*
X76348266Y-53810001D01*
X76208006Y-53837900D01*
X76064994Y-53837900D01*
X75924734Y-53810001D01*
X75792612Y-53755274D01*
X75792611Y-53755274D01*
X75792610Y-53755273D01*
X75673702Y-53675821D01*
X75572579Y-53574698D01*
X75493127Y-53455790D01*
X75493126Y-53455788D01*
X75438399Y-53323666D01*
X75410500Y-53183406D01*
X75410500Y-53040394D01*
X75438399Y-52900134D01*
X75493126Y-52768012D01*
X75523202Y-52723000D01*
X75572579Y-52649102D01*
X75673702Y-52547979D01*
X75792610Y-52468527D01*
X75792612Y-52468526D01*
X75924734Y-52413799D01*
X76064994Y-52385900D01*
X76208006Y-52385900D01*
X76348266Y-52413799D01*
G37*
G36*
X55785000Y-53094000D02*
G01*
X54283000Y-53094000D01*
X54283000Y-51792000D01*
X55785000Y-51792000D01*
X55785000Y-53094000D01*
G37*
G36*
X63371591Y-51941085D02*
G01*
X63405569Y-51951393D01*
X63436890Y-51968134D01*
X63464339Y-51990661D01*
X63486866Y-52018110D01*
X63503607Y-52049431D01*
X63513915Y-52083409D01*
X63518000Y-52124890D01*
X63518000Y-52726110D01*
X63513915Y-52767591D01*
X63503607Y-52801569D01*
X63486866Y-52832890D01*
X63464339Y-52860339D01*
X63436890Y-52882866D01*
X63405569Y-52899607D01*
X63371591Y-52909915D01*
X63330110Y-52914000D01*
X62653890Y-52914000D01*
X62612409Y-52909915D01*
X62578431Y-52899607D01*
X62547110Y-52882866D01*
X62519661Y-52860339D01*
X62497134Y-52832890D01*
X62480393Y-52801569D01*
X62470085Y-52767591D01*
X62466000Y-52726110D01*
X62466000Y-52124890D01*
X62470085Y-52083409D01*
X62480393Y-52049431D01*
X62497134Y-52018110D01*
X62519661Y-51990661D01*
X62547110Y-51968134D01*
X62578431Y-51951393D01*
X62612409Y-51941085D01*
X62653890Y-51937000D01*
X63330110Y-51937000D01*
X63371591Y-51941085D01*
G37*
G36*
X57985000Y-52814000D02*
G01*
X56483000Y-52814000D01*
X56483000Y-51712000D01*
X57985000Y-51712000D01*
X57985000Y-52814000D01*
G37*
G36*
X59752591Y-51675085D02*
G01*
X59786569Y-51685393D01*
X59817890Y-51702134D01*
X59845339Y-51724661D01*
X59867866Y-51752110D01*
X59884607Y-51783431D01*
X59894915Y-51817409D01*
X59899000Y-51858890D01*
X59899000Y-52535110D01*
X59894915Y-52576591D01*
X59884607Y-52610569D01*
X59867866Y-52641890D01*
X59845339Y-52669339D01*
X59817890Y-52691866D01*
X59786569Y-52708607D01*
X59752591Y-52718915D01*
X59711110Y-52723000D01*
X59109890Y-52723000D01*
X59068409Y-52718915D01*
X59034431Y-52708607D01*
X59003110Y-52691866D01*
X58975661Y-52669339D01*
X58953134Y-52641890D01*
X58936393Y-52610569D01*
X58926085Y-52576591D01*
X58922000Y-52535110D01*
X58922000Y-51858890D01*
X58926085Y-51817409D01*
X58936393Y-51783431D01*
X58953134Y-51752110D01*
X58975661Y-51724661D01*
X59003110Y-51702134D01*
X59034431Y-51685393D01*
X59068409Y-51675085D01*
X59109890Y-51671000D01*
X59711110Y-51671000D01*
X59752591Y-51675085D01*
G37*
G36*
X61327591Y-51675085D02*
G01*
X61361569Y-51685393D01*
X61392890Y-51702134D01*
X61420339Y-51724661D01*
X61442866Y-51752110D01*
X61459607Y-51783431D01*
X61469915Y-51817409D01*
X61474000Y-51858890D01*
X61474000Y-52535110D01*
X61469915Y-52576591D01*
X61459607Y-52610569D01*
X61442866Y-52641890D01*
X61420339Y-52669339D01*
X61392890Y-52691866D01*
X61361569Y-52708607D01*
X61327591Y-52718915D01*
X61286110Y-52723000D01*
X60684890Y-52723000D01*
X60643409Y-52718915D01*
X60609431Y-52708607D01*
X60578110Y-52691866D01*
X60550661Y-52669339D01*
X60528134Y-52641890D01*
X60511393Y-52610569D01*
X60501085Y-52576591D01*
X60497000Y-52535110D01*
X60497000Y-51858890D01*
X60501085Y-51817409D01*
X60511393Y-51783431D01*
X60528134Y-51752110D01*
X60550661Y-51724661D01*
X60578110Y-51702134D01*
X60609431Y-51685393D01*
X60643409Y-51675085D01*
X60684890Y-51671000D01*
X61286110Y-51671000D01*
X61327591Y-51675085D01*
G37*
G36*
X70611091Y-51294085D02*
G01*
X70645069Y-51304393D01*
X70676390Y-51321134D01*
X70703839Y-51343661D01*
X70726366Y-51371110D01*
X70743107Y-51402431D01*
X70753415Y-51436409D01*
X70757500Y-51477890D01*
X70757500Y-52154110D01*
X70753415Y-52195591D01*
X70743107Y-52229569D01*
X70726366Y-52260890D01*
X70703839Y-52288339D01*
X70676390Y-52310866D01*
X70645069Y-52327607D01*
X70611091Y-52337915D01*
X70569610Y-52342000D01*
X69968390Y-52342000D01*
X69926909Y-52337915D01*
X69892931Y-52327607D01*
X69861610Y-52310866D01*
X69834161Y-52288339D01*
X69811634Y-52260890D01*
X69794893Y-52229569D01*
X69784585Y-52195591D01*
X69780500Y-52154110D01*
X69780500Y-51477890D01*
X69784585Y-51436409D01*
X69794893Y-51402431D01*
X69811634Y-51371110D01*
X69834161Y-51343661D01*
X69861610Y-51321134D01*
X69892931Y-51304393D01*
X69926909Y-51294085D01*
X69968390Y-51290000D01*
X70569610Y-51290000D01*
X70611091Y-51294085D01*
G37*
G36*
X72186091Y-51294085D02*
G01*
X72220069Y-51304393D01*
X72251390Y-51321134D01*
X72278839Y-51343661D01*
X72301366Y-51371110D01*
X72318107Y-51402431D01*
X72328415Y-51436409D01*
X72332500Y-51477890D01*
X72332500Y-52154110D01*
X72328415Y-52195591D01*
X72318107Y-52229569D01*
X72301366Y-52260890D01*
X72278839Y-52288339D01*
X72251390Y-52310866D01*
X72220069Y-52327607D01*
X72186091Y-52337915D01*
X72144610Y-52342000D01*
X71543390Y-52342000D01*
X71501909Y-52337915D01*
X71467931Y-52327607D01*
X71436610Y-52310866D01*
X71409161Y-52288339D01*
X71386634Y-52260890D01*
X71369893Y-52229569D01*
X71359585Y-52195591D01*
X71355500Y-52154110D01*
X71355500Y-51477890D01*
X71359585Y-51436409D01*
X71369893Y-51402431D01*
X71386634Y-51371110D01*
X71409161Y-51343661D01*
X71436610Y-51321134D01*
X71467931Y-51304393D01*
X71501909Y-51294085D01*
X71543390Y-51290000D01*
X72144610Y-51290000D01*
X72186091Y-51294085D01*
G37*
M02*
