G04 #@! TF.GenerationSoftware,KiCad,Pcbnew,(5.1.5-0)*
G04 #@! TF.CreationDate,2020-09-15T10:34:15-07:00*
G04 #@! TF.ProjectId,cereal,63657265-616c-42e6-9b69-6361645f7063,rev?*
G04 #@! TF.SameCoordinates,Original*
G04 #@! TF.FileFunction,Legend,Bot*
G04 #@! TF.FilePolarity,Positive*
%FSLAX46Y46*%
G04 Gerber Fmt 4.6, Leading zero omitted, Abs format (unit mm)*
G04 Created by KiCad (PCBNEW (5.1.5-0)) date 2020-09-15 10:34:15*
%MOMM*%
%LPD*%
G04 APERTURE LIST*
%ADD10C,0.250000*%
%ADD11C,0.150000*%
G04 APERTURE END LIST*
D10*
X66326142Y-57542619D02*
X66659476Y-56542619D01*
X66992809Y-57542619D01*
X67754714Y-56542619D02*
X67754714Y-57542619D01*
X67754714Y-56590238D02*
X67659476Y-56542619D01*
X67469000Y-56542619D01*
X67373761Y-56590238D01*
X67326142Y-56637857D01*
X67278523Y-56733095D01*
X67278523Y-57018809D01*
X67326142Y-57114047D01*
X67373761Y-57161666D01*
X67469000Y-57209285D01*
X67659476Y-57209285D01*
X67754714Y-57161666D01*
X68659476Y-56542619D02*
X68659476Y-57542619D01*
X68659476Y-56590238D02*
X68564238Y-56542619D01*
X68373761Y-56542619D01*
X68278523Y-56590238D01*
X68230904Y-56637857D01*
X68183285Y-56733095D01*
X68183285Y-57018809D01*
X68230904Y-57114047D01*
X68278523Y-57161666D01*
X68373761Y-57209285D01*
X68564238Y-57209285D01*
X68659476Y-57161666D01*
X70421380Y-57495000D02*
X70326142Y-57542619D01*
X70183285Y-57542619D01*
X70040428Y-57495000D01*
X69945190Y-57399761D01*
X69897571Y-57304523D01*
X69849952Y-57114047D01*
X69849952Y-56971190D01*
X69897571Y-56780714D01*
X69945190Y-56685476D01*
X70040428Y-56590238D01*
X70183285Y-56542619D01*
X70278523Y-56542619D01*
X70421380Y-56590238D01*
X70469000Y-56637857D01*
X70469000Y-56971190D01*
X70278523Y-56971190D01*
X70897571Y-56542619D02*
X70897571Y-57542619D01*
X71469000Y-56542619D01*
X71469000Y-57542619D01*
X71945190Y-56542619D02*
X71945190Y-57542619D01*
X72183285Y-57542619D01*
X72326142Y-57495000D01*
X72421380Y-57399761D01*
X72469000Y-57304523D01*
X72516619Y-57114047D01*
X72516619Y-56971190D01*
X72469000Y-56780714D01*
X72421380Y-56685476D01*
X72326142Y-56590238D01*
X72183285Y-56542619D01*
X71945190Y-56542619D01*
X66802333Y-54792619D02*
X66469000Y-55268809D01*
X66230904Y-54792619D02*
X66230904Y-55792619D01*
X66611857Y-55792619D01*
X66707095Y-55745000D01*
X66754714Y-55697380D01*
X66802333Y-55602142D01*
X66802333Y-55459285D01*
X66754714Y-55364047D01*
X66707095Y-55316428D01*
X66611857Y-55268809D01*
X66230904Y-55268809D01*
X67088047Y-55792619D02*
X67659476Y-55792619D01*
X67373761Y-54792619D02*
X67373761Y-55792619D01*
X67945190Y-54840238D02*
X68088047Y-54792619D01*
X68326142Y-54792619D01*
X68421380Y-54840238D01*
X68469000Y-54887857D01*
X68516619Y-54983095D01*
X68516619Y-55078333D01*
X68469000Y-55173571D01*
X68421380Y-55221190D01*
X68326142Y-55268809D01*
X68135666Y-55316428D01*
X68040428Y-55364047D01*
X67992809Y-55411666D01*
X67945190Y-55506904D01*
X67945190Y-55602142D01*
X67992809Y-55697380D01*
X68040428Y-55745000D01*
X68135666Y-55792619D01*
X68373761Y-55792619D01*
X68516619Y-55745000D01*
X71040428Y-54887857D02*
X70992809Y-54840238D01*
X70849952Y-54792619D01*
X70754714Y-54792619D01*
X70611857Y-54840238D01*
X70516619Y-54935476D01*
X70469000Y-55030714D01*
X70421380Y-55221190D01*
X70421380Y-55364047D01*
X70469000Y-55554523D01*
X70516619Y-55649761D01*
X70611857Y-55745000D01*
X70754714Y-55792619D01*
X70849952Y-55792619D01*
X70992809Y-55745000D01*
X71040428Y-55697380D01*
X71326142Y-55792619D02*
X71897571Y-55792619D01*
X71611857Y-54792619D02*
X71611857Y-55792619D01*
X72183285Y-54840238D02*
X72326142Y-54792619D01*
X72564238Y-54792619D01*
X72659476Y-54840238D01*
X72707095Y-54887857D01*
X72754714Y-54983095D01*
X72754714Y-55078333D01*
X72707095Y-55173571D01*
X72659476Y-55221190D01*
X72564238Y-55268809D01*
X72373761Y-55316428D01*
X72278523Y-55364047D01*
X72230904Y-55411666D01*
X72183285Y-55506904D01*
X72183285Y-55602142D01*
X72230904Y-55697380D01*
X72278523Y-55745000D01*
X72373761Y-55792619D01*
X72611857Y-55792619D01*
X72754714Y-55745000D01*
X66683285Y-53042619D02*
X66349952Y-53518809D01*
X66111857Y-53042619D02*
X66111857Y-54042619D01*
X66492809Y-54042619D01*
X66588047Y-53995000D01*
X66635666Y-53947380D01*
X66683285Y-53852142D01*
X66683285Y-53709285D01*
X66635666Y-53614047D01*
X66588047Y-53566428D01*
X66492809Y-53518809D01*
X66111857Y-53518809D01*
X67016619Y-54042619D02*
X67683285Y-53042619D01*
X67683285Y-54042619D02*
X67016619Y-53042619D01*
X68064238Y-53042619D02*
X68064238Y-54042619D01*
X68302333Y-54042619D01*
X68445190Y-53995000D01*
X68540428Y-53899761D01*
X68588047Y-53804523D01*
X68635666Y-53614047D01*
X68635666Y-53471190D01*
X68588047Y-53280714D01*
X68540428Y-53185476D01*
X68445190Y-53090238D01*
X68302333Y-53042619D01*
X68064238Y-53042619D01*
X70445190Y-54042619D02*
X71016619Y-54042619D01*
X70730904Y-53042619D02*
X70730904Y-54042619D01*
X71254714Y-54042619D02*
X71921380Y-53042619D01*
X71921380Y-54042619D02*
X71254714Y-53042619D01*
X72302333Y-53042619D02*
X72302333Y-54042619D01*
X72540428Y-54042619D01*
X72683285Y-53995000D01*
X72778523Y-53899761D01*
X72826142Y-53804523D01*
X72873761Y-53614047D01*
X72873761Y-53471190D01*
X72826142Y-53280714D01*
X72778523Y-53185476D01*
X72683285Y-53090238D01*
X72540428Y-53042619D01*
X72302333Y-53042619D01*
D11*
X60568071Y-57297671D02*
X60568071Y-57697671D01*
X60568071Y-57583385D02*
X60596642Y-57640528D01*
X60625214Y-57669100D01*
X60682357Y-57697671D01*
X60739500Y-57697671D01*
X61168071Y-57326242D02*
X61110928Y-57297671D01*
X60996642Y-57297671D01*
X60939500Y-57326242D01*
X60910928Y-57383385D01*
X60910928Y-57611957D01*
X60939500Y-57669100D01*
X60996642Y-57697671D01*
X61110928Y-57697671D01*
X61168071Y-57669100D01*
X61196642Y-57611957D01*
X61196642Y-57554814D01*
X60910928Y-57497671D01*
X61396642Y-57697671D02*
X61539500Y-57297671D01*
X61682357Y-57697671D01*
X62482357Y-57897671D02*
X62539500Y-57897671D01*
X62596642Y-57869100D01*
X62625214Y-57840528D01*
X62653785Y-57783385D01*
X62682357Y-57669100D01*
X62682357Y-57526242D01*
X62653785Y-57411957D01*
X62625214Y-57354814D01*
X62596642Y-57326242D01*
X62539500Y-57297671D01*
X62482357Y-57297671D01*
X62425214Y-57326242D01*
X62396642Y-57354814D01*
X62368071Y-57411957D01*
X62339500Y-57526242D01*
X62339500Y-57669100D01*
X62368071Y-57783385D01*
X62396642Y-57840528D01*
X62425214Y-57869100D01*
X62482357Y-57897671D01*
X62939500Y-57354814D02*
X62968071Y-57326242D01*
X62939500Y-57297671D01*
X62910928Y-57326242D01*
X62939500Y-57354814D01*
X62939500Y-57297671D01*
X63168071Y-57897671D02*
X63539500Y-57897671D01*
X63339500Y-57669100D01*
X63425214Y-57669100D01*
X63482357Y-57640528D01*
X63510928Y-57611957D01*
X63539500Y-57554814D01*
X63539500Y-57411957D01*
X63510928Y-57354814D01*
X63482357Y-57326242D01*
X63425214Y-57297671D01*
X63253785Y-57297671D01*
X63196642Y-57326242D01*
X63168071Y-57354814D01*
X53707333Y-58798600D02*
X53874000Y-58331933D01*
X54040666Y-58798600D01*
X54307333Y-58331933D02*
X54307333Y-58798600D01*
X54307333Y-59031933D02*
X54274000Y-58998600D01*
X54307333Y-58965266D01*
X54340666Y-58998600D01*
X54307333Y-59031933D01*
X54307333Y-58965266D01*
X54540666Y-58798600D02*
X54807333Y-58798600D01*
X54640666Y-59031933D02*
X54640666Y-58431933D01*
X54674000Y-58365266D01*
X54740666Y-58331933D01*
X54807333Y-58331933D01*
X55340666Y-58331933D02*
X55340666Y-58698600D01*
X55307333Y-58765266D01*
X55240666Y-58798600D01*
X55107333Y-58798600D01*
X55040666Y-58765266D01*
X55340666Y-58365266D02*
X55274000Y-58331933D01*
X55107333Y-58331933D01*
X55040666Y-58365266D01*
X55007333Y-58431933D01*
X55007333Y-58498600D01*
X55040666Y-58565266D01*
X55107333Y-58598600D01*
X55274000Y-58598600D01*
X55340666Y-58631933D01*
X55774000Y-58331933D02*
X55707333Y-58365266D01*
X55674000Y-58431933D01*
X55674000Y-59031933D01*
X55974000Y-58798600D02*
X56140666Y-58331933D01*
X56307333Y-58798600D02*
X56140666Y-58331933D01*
X56074000Y-58165266D01*
X56040666Y-58131933D01*
X55974000Y-58098600D01*
X56574000Y-58398600D02*
X56607333Y-58365266D01*
X56574000Y-58331933D01*
X56540666Y-58365266D01*
X56574000Y-58398600D01*
X56574000Y-58331933D01*
X57207333Y-58365266D02*
X57140666Y-58331933D01*
X57007333Y-58331933D01*
X56940666Y-58365266D01*
X56907333Y-58398600D01*
X56874000Y-58465266D01*
X56874000Y-58665266D01*
X56907333Y-58731933D01*
X56940666Y-58765266D01*
X57007333Y-58798600D01*
X57140666Y-58798600D01*
X57207333Y-58765266D01*
X57607333Y-58331933D02*
X57540666Y-58365266D01*
X57507333Y-58398600D01*
X57474000Y-58465266D01*
X57474000Y-58665266D01*
X57507333Y-58731933D01*
X57540666Y-58765266D01*
X57607333Y-58798600D01*
X57707333Y-58798600D01*
X57774000Y-58765266D01*
X57807333Y-58731933D01*
X57840666Y-58665266D01*
X57840666Y-58465266D01*
X57807333Y-58398600D01*
X57774000Y-58365266D01*
X57707333Y-58331933D01*
X57607333Y-58331933D01*
X58440666Y-58331933D02*
X58440666Y-59031933D01*
X58440666Y-58365266D02*
X58374000Y-58331933D01*
X58240666Y-58331933D01*
X58174000Y-58365266D01*
X58140666Y-58398600D01*
X58107333Y-58465266D01*
X58107333Y-58665266D01*
X58140666Y-58731933D01*
X58174000Y-58765266D01*
X58240666Y-58798600D01*
X58374000Y-58798600D01*
X58440666Y-58765266D01*
X59040666Y-58365266D02*
X58974000Y-58331933D01*
X58840666Y-58331933D01*
X58774000Y-58365266D01*
X58740666Y-58431933D01*
X58740666Y-58698600D01*
X58774000Y-58765266D01*
X58840666Y-58798600D01*
X58974000Y-58798600D01*
X59040666Y-58765266D01*
X59074000Y-58698600D01*
X59074000Y-58631933D01*
X58740666Y-58565266D01*
X59340666Y-58365266D02*
X59407333Y-58331933D01*
X59540666Y-58331933D01*
X59607333Y-58365266D01*
X59640666Y-58431933D01*
X59640666Y-58465266D01*
X59607333Y-58531933D01*
X59540666Y-58565266D01*
X59440666Y-58565266D01*
X59374000Y-58598600D01*
X59340666Y-58665266D01*
X59340666Y-58698600D01*
X59374000Y-58765266D01*
X59440666Y-58798600D01*
X59540666Y-58798600D01*
X59607333Y-58765266D01*
X60440666Y-59065266D02*
X59840666Y-58165266D01*
X60974000Y-58365266D02*
X60907333Y-58331933D01*
X60774000Y-58331933D01*
X60707333Y-58365266D01*
X60674000Y-58398600D01*
X60640666Y-58465266D01*
X60640666Y-58665266D01*
X60674000Y-58731933D01*
X60707333Y-58765266D01*
X60774000Y-58798600D01*
X60907333Y-58798600D01*
X60974000Y-58765266D01*
X61540666Y-58365266D02*
X61474000Y-58331933D01*
X61340666Y-58331933D01*
X61274000Y-58365266D01*
X61240666Y-58431933D01*
X61240666Y-58698600D01*
X61274000Y-58765266D01*
X61340666Y-58798600D01*
X61474000Y-58798600D01*
X61540666Y-58765266D01*
X61574000Y-58698600D01*
X61574000Y-58631933D01*
X61240666Y-58565266D01*
X61874000Y-58331933D02*
X61874000Y-58798600D01*
X61874000Y-58665266D02*
X61907333Y-58731933D01*
X61940666Y-58765266D01*
X62007333Y-58798600D01*
X62074000Y-58798600D01*
X62574000Y-58365266D02*
X62507333Y-58331933D01*
X62374000Y-58331933D01*
X62307333Y-58365266D01*
X62274000Y-58431933D01*
X62274000Y-58698600D01*
X62307333Y-58765266D01*
X62374000Y-58798600D01*
X62507333Y-58798600D01*
X62574000Y-58765266D01*
X62607333Y-58698600D01*
X62607333Y-58631933D01*
X62274000Y-58565266D01*
X63207333Y-58331933D02*
X63207333Y-58698600D01*
X63174000Y-58765266D01*
X63107333Y-58798600D01*
X62974000Y-58798600D01*
X62907333Y-58765266D01*
X63207333Y-58365266D02*
X63140666Y-58331933D01*
X62974000Y-58331933D01*
X62907333Y-58365266D01*
X62874000Y-58431933D01*
X62874000Y-58498600D01*
X62907333Y-58565266D01*
X62974000Y-58598600D01*
X63140666Y-58598600D01*
X63207333Y-58631933D01*
X63640666Y-58331933D02*
X63574000Y-58365266D01*
X63540666Y-58431933D01*
X63540666Y-59031933D01*
M02*
